<?xml version="1.0" standalone="no"?>
<!DOCTYPE svg PUBLIC "-//W3C//DTD SVG 20010904//EN"
 "http://www.w3.org/TR/2001/REC-SVG-20010904/DTD/svg10.dtd">
<svg version="1.0" xmlns="http://www.w3.org/2000/svg"
 width="400.000000pt" height="137.000000pt" viewBox="0 0 400.000000 137.000000"
 preserveAspectRatio="xMidYMid meet">

<g transform="translate(0.000000,137.000000) scale(0.100000,-0.100000)"
fill="#000000" stroke="none">
<path d="M7 758 c-9 -450 -9 -730 1 -726 5 2 214 120 465 263 l456 260 -37 22
c-20 12 -57 34 -82 49 l-45 27 46 13 c30 9 58 27 77 49 79 89 38 205 -77 221
-33 4 -51 11 -51 20 0 15 -12 17 -47 8 -22 -6 -23 -10 -23 -135 0 -71 -2 -129
-4 -129 -2 0 -153 88 -335 195 -183 107 -333 195 -335 195 -1 0 -6 -149 -9
-332z m836 91 c33 -41 16 -92 -38 -115 -19 -8 -37 -14 -40 -14 -3 0 -5 37 -5
81 l0 82 33 -7 c17 -3 40 -16 50 -27z"/>
<path d="M1040 1080 c-13 -8 -15 -44 -15 -220 0 -196 1 -210 18 -210 48 0 57
16 57 99 0 63 4 81 18 94 48 44 76 -8 70 -129 -3 -71 -2 -74 18 -74 50 0 54 7
53 99 -1 114 -16 171 -51 190 -24 14 -30 14 -65 -4 -21 -11 -41 -21 -45 -23
-4 -2 -5 40 -1 92 l6 96 -24 0 c-13 0 -31 -5 -39 -10z"/>
<path d="M1816 1074 c-14 -13 -16 -46 -14 -220 2 -203 3 -204 24 -204 42 0 55
26 52 101 -2 55 1 72 16 88 49 54 82 -2 74 -125 l-5 -74 27 0 c46 0 54 20 47
128 -6 113 -17 148 -52 164 -21 9 -32 8 -63 -8 -20 -10 -41 -20 -46 -23 -5 -2
-5 38 -1 93 l7 96 -25 0 c-14 0 -33 -7 -41 -16z"/>
<path d="M1359 1016 c-9 -20 -9 -29 1 -41 27 -33 75 -7 68 37 -5 35 -54 38
-69 4z"/>
<path d="M2072 1022 c-20 -3 -23 -7 -16 -25 4 -12 9 -100 11 -196 l4 -174 59
6 c119 10 208 87 218 187 6 65 -2 93 -39 134 -42 48 -157 81 -237 68z m148
-77 c41 -21 60 -53 60 -100 0 -56 -28 -106 -75 -132 -66 -37 -65 -38 -65 112
l0 135 25 0 c15 0 39 -7 55 -15z"/>
<path d="M2697 1003 c-4 -3 -7 -19 -7 -34 0 -18 -6 -28 -20 -32 -28 -7 -27
-47 1 -47 20 0 20 -3 14 -75 -8 -78 -1 -170 14 -194 14 -22 74 5 62 28 -28 51
-24 241 5 241 8 0 14 4 14 9 0 5 3 16 6 25 4 12 0 16 -15 16 -17 0 -21 6 -21
35 0 30 -3 35 -23 35 -13 0 -27 -3 -30 -7z"/>
<path d="M3343 1003 c-7 -2 -13 -18 -13 -34 0 -19 -5 -29 -15 -29 -9 0 -15 -9
-15 -25 0 -16 6 -25 15 -25 13 0 15 -21 15 -126 0 -140 7 -164 44 -157 40 8
50 27 32 62 -11 21 -16 58 -16 124 0 84 2 95 18 100 11 2 21 14 25 26 4 17 1
21 -20 21 -23 0 -25 3 -19 35 6 32 5 35 -16 34 -13 0 -29 -3 -35 -6z"/>
<path d="M1590 928 c-57 -29 -79 -68 -56 -102 8 -13 31 -34 50 -46 21 -12 36
-30 36 -40 0 -23 -36 -50 -67 -50 -28 0 -33 -9 -22 -37 22 -59 179 13 179 82
0 26 -22 53 -74 90 -36 26 -27 51 25 66 44 14 43 13 29 40 -14 25 -46 24 -100
-3z"/>
<path d="M1373 913 c-15 -6 -18 -249 -4 -272 7 -11 13 -11 37 1 16 7 29 19 28
26 -1 6 -2 66 -2 132 -2 118 -2 120 -24 119 -13 0 -29 -3 -35 -6z"/>
<path d="M2494 876 c-70 -31 -98 -107 -65 -180 16 -38 26 -47 60 -57 58 -17
112 -3 122 32 6 25 6 25 -47 21 -60 -5 -71 8 -26 32 37 19 68 55 76 89 5 21 1
33 -18 52 -28 28 -56 31 -102 11z m56 -60 c0 -23 -40 -66 -61 -66 -15 0 -10
44 7 68 21 31 54 29 54 -2z"/>
<path d="M2913 883 c-31 -6 -81 -66 -88 -105 -16 -87 45 -154 134 -145 44 5
61 18 61 49 0 13 -7 15 -40 11 -21 -3 -47 -2 -57 1 -14 6 -11 11 21 29 121 68
98 185 -31 160z m47 -67 c0 -23 -40 -66 -61 -66 -15 0 -10 44 7 68 21 31 54
29 54 -2z"/>
<path d="M3165 876 c-69 -31 -104 -116 -75 -185 28 -68 170 -87 170 -22 0 25
-2 26 -44 23 -38 -3 -47 0 -61 22 -24 36 -12 82 28 107 18 10 40 19 50 19 11
0 17 8 17 25 0 21 -5 25 -27 25 -16 -1 -41 -7 -58 -14z"/>
</g>
</svg>
